<svg xmlns="http://www.w3.org/2000/svg" id="Capa_1" height="512" viewBox="0 0 512 512" width="512"><g><path d="m241 160.58h30v30h-30z"></path><path d="m373.653 85.646 17.403-85.646h-270.112l17.402 85.649c8.99 44.21-1.104 94.881-25.681 129.042-33.723 46.479-43.73 110.334-26.088 166.739l41.772 130.57h255.303l41.8-130.662c17.611-56.306 7.605-120.156-26.107-166.634-24.594-34.209-34.679-84.861-25.692-129.058zm-19.306-55.646-10.092 49.671c-9.486 46.646-1.39 97.691 21.098 137.435-70.317 30.183-148.389 30.183-218.706 0 22.488-39.744 30.584-90.789 21.098-137.432l-10.092-49.674zm42.501 342.29-35.097 109.71h-90.751v-114.112h-30v114.112h-90.751l-35.067-109.617c-13.566-43.37-7.749-91.939 14.966-129.757 40.338 18.098 83.095 27.15 125.853 27.15 42.759 0 85.517-9.052 125.856-27.151 22.706 37.785 28.534 86.365 14.991 129.665z"></path><path d="m512 112.388h-63.323l18.426-24.076-23.825-18.233-43.857 57.309 43.857 57.308 23.825-18.232-18.426-24.076h63.323z"></path><path d="m68.722 70.079-23.825 18.233 18.426 24.076h-63.323v30h63.323l-18.426 24.076 23.825 18.232 43.857-57.308z"></path></g></svg>