<svg xmlns="http://www.w3.org/2000/svg" height="512pt" viewBox="0 -61 512 512" width="512pt"><path d="m421.867188 210.308594h-23.761719c14.914062-9.554688 28.253906-21.230469 39.496093-34.832032 28.203126-34.105468 43.105469-75.660156 43.105469-120.160156v-40.292968c0-8.296876-6.726562-15.023438-15.019531-15.023438h-40.292969c-38.726562 0-75.71875 11.683594-106.765625 33.003906-29.460937-21.355468-65.242187-33.003906-101.996094-33.003906h-25.277343c-8.292969 0-15.019531 6.726562-15.019531 15.023438v25.273437c0 14.132813 1.6875 27.988281 4.925781 41.34375-2.132813 1.773437-4.1875 3.636719-6.148438 5.601563l-148.714843 148.710937c-17.023438 17.027344-26.398438 39.660156-26.398438 63.734375s9.375 46.710938 26.398438 63.734375c17.023437 17.023437 39.660156 26.398437 63.734374 26.398437 22.046876 0 42.875-7.886718 59.304688-22.285156 15.960938 14.316406 37.039062 23.039063 60.117188 23.039063h212.3125c49.699218 0 90.132812-40.433594 90.132812-90.132813 0-49.699218-40.433594-90.132812-90.132812-90.132812zm28.796874-180.265625v25.273437c0 37.429688-12.523437 72.359375-36.214843 101.015625-28.359375 34.300781-73.117188 53.972657-122.804688 53.976563l64.488281-64.488282c5.867188-5.863281 5.867188-15.375 0-21.242187-5.867187-5.867187-15.378906-5.867187-21.246093 0l-68.320313 68.320313c-1.003906-37.433594 11.246094-74.125 35.292969-103.867188 30.304687-37.488281 75.332031-58.988281 123.535156-58.988281zm-244.285156 0h10.253906c27.710938 0 54.738282 8 77.746094 22.769531-5.601562 5.410156-10.914062 11.183594-15.886718 17.332031-1.023438 1.265625-2.023438 2.542969-3.007813 3.828125l-9.488281-9.484375c-5.863282-5.867187-15.375-5.867187-21.242188 0-5.867187 5.867188-5.867187 15.378907 0 21.246094l14.050782 14.050781c-6.390626 11.902344-11.445313 24.382813-15.121094 37.242188-23.941406-26.300782-37.304688-60.429688-37.304688-96.726563zm-14.335937 82.757812c10.359375 22.632813 25.628906 42.972657 45.113281 59.652344-1.078125 12.511719-.902344 25.183594.558594 37.855469h-28.160156c-11.53125 0-22.558594 2.179687-32.703126 6.144531l-44.230468-44.234375zm-144.398438 229.375c-11.351562-11.347656-17.601562-26.4375-17.601562-42.488281s6.25-31.140625 17.601562-42.488281l63.734375-63.734375 39.023438 39.027344c-18.972656 16.535156-30.980469 40.867187-30.980469 67.949218 0 15.800782 4.089844 30.65625 11.261719 43.582032-11.101563 10.175781-25.398438 15.753906-40.550782 15.753906-16.050781 0-31.140624-6.25-42.488281-17.601563zm101.820313-41.734375c0-33.132812 26.957031-60.085937 60.089844-60.085937h90.132812v120.175781h-90.132812c-33.132813 0-60.089844-26.957031-60.089844-60.089844zm272.402344 60.089844h-92.136719v-120.175781h92.136719c33.132812 0 60.089843 26.953125 60.089843 60.085937 0 33.132813-26.957031 60.089844-60.089843 60.089844zm0 0"></path></svg>