<svg width="12px" height="12px" viewBox="0 0 12 12" version="1.1" xmlns="http://www.w3.org/2000/svg" xmlns:xlink="http://www.w3.org/1999/xlink">
    <defs>
        <path d="M12,6 C12,6.88359 11.4445,7.63828 10.6617,7.93125 C11.0062,8.69063 10.868,9.61641 10.2422,10.2422 C9.61875,10.8656 8.69531,11.0086 7.93125,10.6617 C7.63828,11.4445 6.88359,12 6,12 C5.11641,12 4.36172,11.4422 4.06875,10.6617 C3.30703,11.0086 2.38125,10.8656 1.75781,10.2422 C1.13203,9.61875 0.99375,8.69063 1.33828,7.93125 C0.555469,7.63828 0,6.88359 0,6 C0,5.11641 0.555469,4.36172 1.33828,4.06875 C0.99375,3.30938 1.13203,2.38359 1.75781,1.75781 C2.38125,1.13203 3.30938,0.99375 4.06875,1.33828 C4.36172,0.555469 5.11641,0 6,0 C6.88359,0 7.63828,0.555469 7.93125,1.33828 C8.69063,0.99375 9.61641,1.13203 10.2422,1.75781 C10.868,2.38359 11.0062,3.30938 10.6617,4.06875 C11.4445,4.36172 12,5.11641 12,6 Z M9.14413,3.05114 L4.55022,7.55114 L2.85589,5.89773 C2.82096,5.86364 2.76856,5.82954 2.71616,5.82954 C2.64629,5.82954 2.59389,5.86364 2.55895,5.89773 L2.06987,6.375 C2.01747,6.42613 2,6.47727 2,6.52841 C2,6.59659 2.01747,6.63068 2.06987,6.66478 L4.39302,8.94888 C4.42795,8.98298 4.48035,9 4.55022,9 C4.60262,9 4.65503,8.98298 4.68996,8.94888 L9.93012,3.83522 C9.96506,3.80114 10,3.75 10,3.68182 C10,3.63068 9.96506,3.57955 9.93012,3.54545 L9.44105,3.05114 C9.38867,3.01705 9.33628,3 9.28384,3 C9.21395,3 9.17907,3.01705 9.14413,3.05114 Z" id="bayer-4" fill-rule="nonzero"></path>
        <path d="M11.3355,1.96193002 L11.3125,1.96193002 C11.5188,2.05564002 11.6792,2.17277002 11.8167,2.36018002 C11.9312,2.54758002 12,2.75842002 12,2.99268002 C12,4.60908002 11.7021,6.08492002 11.1292,7.42021002 C10.625,8.54462003 9.9375,9.52859002 9.1125,10.3719 C8.40212,11.0746 7.66875,11.5901 6.9125,11.8946 C6.6375,12.0351 6.3625,12.0351 6.0875,11.8946 C5.21667,11.5432 4.41458,10.9575 3.68125,10.1611 C2.85625,9.31772002 2.2375,8.31043002 1.779167,7.13909002 C1.252083,5.85066002 1,4.46852002 1,2.99268002 C1,2.75842002 1.0458333,2.54758002 1.183333,2.36018002 C1.297917,2.17277002 1.458333,2.05564002 1.6875,1.96193002 L6.0875,0.087847725 C6.3625,-0.029282575 6.6375,-0.029282575 6.93542,0.087847725 L11.3355,1.96193002 Z M10.14413,3.05114003 L5.55022,7.55114003 L3.85589,5.89773003 C3.82096,5.86364003 3.76856,5.82954003 3.71616,5.82954003 C3.64629,5.82954003 3.59389,5.86364003 3.55895,5.89773003 L3.06987,6.37500003 C3.01747,6.42613002 3,6.47727003 3,6.52841003 C3,6.59659003 3.01747,6.63068003 3.06987,6.66478003 L5.39302,8.94888003 C5.42795,8.98298002 5.48035,9.00000003 5.55022,9.00000003 C5.60262,9.00000003 5.65503,8.98298002 5.68996,8.94888003 L10.93012,3.83522003 C10.96506,3.80114003 11,3.75000003 11,3.68182003 C11,3.63068003 10.96506,3.57955003 10.93012,3.54545003 L10.44105,3.05114003 C10.38867,3.01705003 10.33628,3.00000003 10.28384,3.00000003 C10.21395,3.00000003 10.17907,3.01705003 10.14413,3.05114003 Z" id="bayer-3" fill-rule="nonzero"></path>
        <path d="M2,0 L10,0 C11.1045695,-2.02906125e-16 12,0.8954305 12,2 L12,10 C12,11.1045695 11.1045695,12 10,12 L2,12 C0.8954305,12 1.3527075e-16,11.1045695 0,10 L0,2 C-1.3527075e-16,0.8954305 0.8954305,2.02906125e-16 2,0 Z M9.14413,3.05114 L4.55022,7.55114 L2.85589,5.89773 C2.82096,5.86364 2.76856,5.82954 2.71616,5.82954 C2.64629,5.82954 2.59389,5.86364 2.55895,5.89773 L2.06987,6.375 C2.01747,6.42613 2,6.47727 2,6.52841 C2,6.59659 2.01747,6.63068 2.06987,6.66478 L4.39302,8.94888 C4.42795,8.98298 4.48035,9 4.55022,9 C4.60262,9 4.65503,8.98298 4.68996,8.94888 L9.93012,3.83522 C9.96506,3.80114 10,3.75 10,3.68182 C10,3.63068 9.96506,3.57955 9.93012,3.54545 L9.44105,3.05114 C9.38867,3.01705 9.33628,3 9.28384,3 C9.21395,3 9.17907,3.01705 9.14413,3.05114 Z" id="bayer-2" fill-rule="nonzero"></path>
        <path d="M6,12 C2.6862915,12 0,9.3137085 0,6 C0,2.6862915 2.6862915,0 6,0 C9.3137085,0 12,2.6862915 12,6 C12,9.3137085 9.3137085,12 6,12 Z M9.14413,3.05114 L4.55022,7.55114 L2.85589,5.89773 C2.82096,5.86364 2.76856,5.82954 2.71616,5.82954 C2.64629,5.82954 2.59389,5.86364 2.55895,5.89773 L2.06987,6.375 C2.01747,6.42613 2,6.47727 2,6.52841 C2,6.59659 2.01747,6.63068 2.06987,6.66478 L4.39302,8.94888 C4.42795,8.98298 4.48035,9 4.55022,9 C4.60262,9 4.65503,8.98298 4.68996,8.94888 L9.93012,3.83522 C9.96506,3.80114 10,3.75 10,3.68182 C10,3.63068 9.96506,3.57955 9.93012,3.54545 L9.44105,3.05114 C9.38867,3.01705 9.33628,3 9.28384,3 C9.21395,3 9.17907,3.01705 9.14413,3.05114 Z" id="bayer-1" fill-rule="nonzero"></path>
        <path d="M12,4.43509112 C12,4.54085747 11.9374945,4.65624615 11.8124835,4.78124835 L9.19473545,7.33412272 L9.81486046,10.9399595 C9.81970244,10.9735012 9.82207941,11.0216568 9.82207941,11.0840743 C9.82207941,11.1851395 9.79566863,11.2692138 9.74275905,11.3365613 C9.69469143,11.4086627 9.62259002,11.4446694 9.52645479,11.4446694 C9.43516155,11.4446694 9.33893829,11.4158817 9.23796109,11.3582182 L6,9.65621974 L2.7620213,11.3582182 C2.65624615,11.4158817 2.56009332,11.4446694 2.47355401,11.4446694 C2.37259442,11.4446694 2.29566863,11.4086627 2.24278546,11.3365613 C2.19470904,11.2692138 2.17066643,11.1851395 2.17066643,11.0840743 C2.17066643,11.0552866 2.175482,11.0072189 2.18509552,10.9399595 L2.80528216,7.33412272 L0.180288758,4.78124835 C0.0600961352,4.65143939 0,4.53605071 0,4.43509112 C0,4.25720574 0.134614843,4.14663263 0.403846289,4.10336297 L4.02404261,3.57691698 L5.64663263,0.295672154 C5.7379787,0.0985570913 5.85576195,0 6,0 C6.14422925,0 6.2620125,0.0985570913 6.35335857,0.295672154 L7.97594859,3.57691698 L11.5961792,4.10336297 C11.8653931,4.14663263 12,4.25720574 12,4.43509112 Z" id="rating-1" fill-rule="nonzero"></path>
        <path d="M4.23220095,10.5678529 L7.07730124,10.5678529 C7.07732893,10.5709914 7.077532,10.5741299 7.077532,10.5772683 C7.077532,11.3630842 6.44053467,12.0001 5.65475571,12.0001 C4.86896751,12.0001 4.23197018,11.3630842 4.23197018,10.5772683 C4.23197018,10.5741299 4.23217326,10.5709914 4.23220095,10.5678529 Z M10.1973402,8.78937794 C10.3322018,8.9875073 10.3465095,9.24397516 10.2344479,9.45591375 C10.1223863,9.66776004 9.90232458,9.80022167 9.66263828,9.80022167 L1.64686391,9.80022167 C1.40717114,9.80022167 1.18714823,9.66776004 1.07507277,9.45591375 C0.962998239,9.24397516 0.977261633,8.98753499 1.11214449,8.7893964 L2.39265516,6.90836751 C2.39265516,6.54925343 2.39265516,5.18115101 2.39265516,4.56157215 C2.39265516,2.97892806 3.51977895,1.65968414 5.01508145,1.36235164 L5.01508145,0.639665949 C5.01508145,0.28640603 5.30146625,0 5.65474648,0 C6.00803593,0 6.2944115,0.28640603 6.29443919,0.639665949 L6.29443919,1.36233318 C7.78975092,1.65962876 8.91687472,2.97888191 8.91687472,4.56154446 C8.91687472,4.92551393 8.91687472,6.33252406 8.91687472,6.90833981 L10.1973402,8.78937794 Z" id="rating-2" fill-rule="nonzero"></path>
        <path d="M10.8322276,1.7204808 C11.300707,2.13829473 11.6519866,2.62575017 11.8394264,3.20606151 C12.0267062,3.80958082 12.0502262,4.38989215 11.9096663,4.99340346 C11.7691865,5.59692278 11.4880668,6.10758619 11.0664673,6.52540972 L6.54609647,11.1679084 C6.38214465,11.3303882 6.19476887,11.3999881 6.00739308,11.3999881 C5.79660132,11.3999881 5.60922554,11.3303882 5.4686897,11.1679084 L0.948310859,6.54863369 C0.503301767,6.10758619 0.222237288,5.59692278 0.0817094484,4.99340346 C-0.0588194311,4.38989215 -0.0119766046,3.80958082 0.175400541,3.20606151 C0.362773927,2.62575017 0.690675153,2.13829473 1.18253459,1.7204808 C1.60412611,1.372294 2.07254957,1.14017107 2.61125296,1.04732269 C3.12653237,0.954472797 3.66521976,1.00089778 4.18050717,1.16338304 C4.69577858,1.34908443 5.14079407,1.62762731 5.53895362,2.02223086 L6.00739308,2.48647833 L6.47583255,2.02223086 C6.85057612,1.62762731 7.31900758,1.34908443 7.83427099,1.16338304 C8.34959041,1.00089778 8.86478982,0.954472797 9.4035092,1.04732269 C9.91878861,1.14017107 10.4106281,1.372294 10.8322276,1.7204808 Z" id="rating-3" fill-rule="nonzero"></path>
        <path d="M0,11.9090995 L2.1818175,11.9090995 L2.1818175,5.3636395 L0,5.3636395 L0,11.9090995 Z M12,5.909092 C12,5.309092 11.509125,4.8181795 10.909125,4.8181795 L7.47273,4.8181795 L8.018175,2.309092 C8.018175,2.2545445 8.018175,2.199997 8.018175,2.145457 C8.018175,1.9272745 7.909125,1.709092 7.8,1.545457 L7.2,1 L3.6,4.599997 C3.3818175,4.7636395 3.27273,5.036362 3.27273,5.3636395 L3.27273,10.8181495 C3.27273,11.4181495 3.763635,11.9090995 4.363635,11.9090995 L9.2727,11.9090995 C9.709125,11.9090995 10.090875,11.6363995 10.254525,11.2545745 L11.890875,7.3817995 C11.945475,7.2727045 11.945475,7.1090695 11.945475,6.999982 L11.945475,5.9090695 L12,5.9090695 C12,5.9636395 12,5.909092 12,5.909092 Z" id="like-1" fill-rule="nonzero"></path>
        <path d="M12,1.00000075 L9.818175,1.00000075 L9.818175,7.54545325 L12,7.54545325 L12,1.00000075 Z M0,7.00000075 C0,7.60000075 0.490875,8.09094325 1.090875,8.09094325 L4.5273,8.09094325 L3.981825,10.5999933 C3.981825,10.6545183 3.981825,10.7091183 3.981825,10.7636432 C3.981825,10.9818183 4.090875,11.1999933 4.2,11.3636433 L4.8,11.9091183 L8.4,8.30911825 C8.618175,8.14546825 8.7273,7.87273075 8.7273,7.54545325 L8.7273,2.09090575 C8.7273,1.49090575 8.23635,1.00000075 7.63635,1.00000075 L2.7273,1 C2.290875,1 1.909125,1.27273075 1.745475,1.65454825 L0.109125,5.52729325 C0.054525,5.63638825 0.054525,5.80002325 0.054525,5.90911075 L0.054525,7.00002325 L0,7.00000075 Z" id="dislike-1" fill-rule="nonzero"></path>
        <path d="M10.8322642,1.73355584 C11.300688,2.15892076 11.6520058,2.6551563 11.8394177,3.24598012 C12.0267589,3.86045101 12.0501942,4.45127483 11.909653,5.06567514 C11.7691823,5.68014603 11.4880292,6.20002864 11.0664761,6.62546415 L6.54610915,11.3519841 C6.38215377,11.5173725 6.19477721,11.5882431 6.00740065,11.5882431 C5.79660995,11.5882431 5.60924045,11.5173725 5.4686992,11.3519841 L0.948311081,6.64904063 C0.503302155,6.20002864 0.222238016,5.68014603 0.0817094757,5.06567514 C-0.058819488,4.45127483 -0.0119765472,3.86045101 0.175400581,3.24598012 C0.362774321,2.6551563 0.690675895,2.15892076 1.18253002,1.73355584 C1.60412552,1.37906155 2.07255634,1.14273202 2.61125779,1.04821433 C3.12653804,0.953626043 3.66522537,1.00092018 4.18051268,1.1663085 C4.69578588,1.35541448 5.14080257,1.63896756 5.53896277,2.04075599 L6.00740065,2.51341505 L6.47584558,2.04075599 C6.85059165,1.63896756 7.31901541,1.35541448 7.83430979,1.1663085 C8.34960416,1.00092018 8.86482794,0.953626043 9.40348703,1.04821433 C9.918852,1.14273202 10.4106405,1.37906155 10.8322642,1.73355584 Z" id="like-2" fill-rule="nonzero"></path>
        <path d="M11.1020493,1.98745001 L11.0457905,1.92836763 C9.96776646,0.817731849 8.28035395,0.706696506 7.07103577,1.57867336 L7.87489495,4.02215679 L5.62503513,5.5345104 L6.74992974,8.55928821 L3.37517531,5.15643965 L5.62503513,3.64401545 L4.95472895,1.59992043 C3.74308136,0.706696506 2.03929237,0.810673022 0.954209535,1.93076763 L0.897950687,1.98745001 C-0.243390994,3.16429759 -0.292591016,5.03827489 0.726844729,6.29305192 L5.69767045,11.4588424 C5.864047,11.6313602 6.133553,11.6313602 6.30000013,11.4588424 L11.2731553,6.2907225 C12.292591,5.03827489 12.243391,3.16429759 11.1020493,1.98745001 Z" id="dislike-2" fill-rule="nonzero"></path>
        <path d="M3.14371209,3.27098464 C2.30271551,4.11198122 1.92527658,5.23482085 1.99573734,6.33458561 L0.0055298551,6.33458561 C-0.0632827019,4.72470141 0.509880572,3.09462671 1.73861737,1.86588992 C3.84461125,-0.240103969 7.13030783,-0.432531897 9.46086964,1.27006382 C9.91659832,0.818455665 10.5767044,0.175243681 10.5767044,0.175243681 C10.97557,-0.217441151 11.3620741,0.123737276 11.3447679,0.475629034 L11.3447679,4.32212735 C11.3443559,4.4704658 11.2240369,4.59119681 11.0761105,4.59119681 L10.5338511,4.59119681 C10.3859247,4.59119681 10.2639575,4.59119681 10.2639575,4.59119681 C10.2639575,4.59119681 10.1432265,4.59037271 9.99571215,4.59037271 L7.19870834,4.59119681 C6.95971862,4.59861373 6.48915611,4.30894171 6.90821222,3.80665125 C6.90821222,3.80665125 7.50609856,3.20670465 8.02528313,2.6932888 C6.49451277,1.75710839 4.46845683,1.94623991 3.14371209,3.27098464 Z M9.76331525,5.66582644 L11.7535227,5.66665055 C11.8219232,7.27653474 11.2479359,8.90702149 10.0200232,10.1353462 C7.91402929,12.2409281 4.62915681,12.4341801 2.2969468,10.7303482 C1.84080608,11.1815443 1.18111204,11.8247563 1.18111204,11.8247563 C0.78183439,12.2174412 0.395742379,11.8762627 0.41263648,11.524371 L0.41263648,7.6782847 C0.413048531,7.5303583 0.533367493,7.40962729 0.681293888,7.40962729 L1.22478947,7.40962729 C1.37271587,7.40962729 1.49468303,7.40962729 1.49468303,7.40962729 C1.49468303,7.40962729 1.61541405,7.41045139 1.76292839,7.41045139 L4.56034425,7.40962729 C4.79933397,7.40138627 5.26948444,7.69105829 4.85084038,8.19334875 C4.85084038,8.19334875 4.25254198,8.7937074 3.73418152,9.30712325 C5.26495187,10.2433037 7.29018372,10.0541721 8.6153405,8.72942741 C9.45633708,7.88843083 9.83377602,6.7655912 9.76331525,5.66582644 Z" id="reload" fill-rule="nonzero"></path>
    </defs>
</svg>