<svg xmlns="http://www.w3.org/2000/svg" height="511pt" viewBox="1 -104 511.99975 511" width="511pt"><path d="m203.84375 227.585938h156.140625c17.679687-52.050782 91.449219-51.550782 108.957031 0h13.046875v-75.027344c0-9.347656-7.660156-17.007813-17.003906-17.007813-38.347656 0-76.695313 0-115.042969 0-8.289062 0-15.007812-6.71875-15.007812-15.003906v-90.035156h-257.09375v18.003906h27.589844c19.753906 0 19.753906 30.011719 0 30.011719h-27.589844v29.011718h72.027344c19.757812 0 19.757812 30.011719 0 30.011719h-72.027344v90.03125h17.050781c17.675781-52.050781 91.449219-51.542969 108.953125.003907zm-156.015625-149.058594h-18.003906c-19.757813 0-19.757813-30.011719 0-30.011719h18.003906v-33.011719c0-8.285156 6.71875-15.003906 15.007813-15.003906 22.964843 0 275.351562.097656 275.351562 0 41.078125 0 76.859375 20.335938 97.914062 55.667969l29.421876 49.375c25.675781.289062 46.476562 21.292969 46.476562 47.011719v90.035156c0 8.285156-6.71875 15.003906-15.003906 15.003906h-26.160156c-5.378907 26.484375-28.78125 46.015625-56.371094 46.015625s-50.992188-19.53125-56.371094-46.015625h-152.355469c-5.378906 26.484375-28.78125 46.015625-56.371093 46.015625-27.589844 0-50.992188-19.53125-56.371094-46.015625h-30.160156c-8.289063 0-15.007813-6.71875-15.007813-15.003906v-45.019532h-33.011719c-19.753906 0-19.753906-30.007812 0-30.007812h33.011719v-30.011719h-33.011719c-19.753906 0-19.753906-30.011719 0-30.011719h33.011719zm386.089844 148.109375c10.742187 10.742187 10.742187 28.164062 0 38.90625-17.28125 17.28125-46.964844 4.988281-46.964844-19.453125s29.683594-36.734375 46.964844-19.453125zm-3.222657-121.097657h-65.75v-70.960937c19.144532 6.136719 34.800782 19.019531 45.480469 36.945313zm-261.875 121.097657c10.742188 10.742187 10.742188 28.164062 0 38.90625-17.28125 17.28125-46.964843 4.988281-46.964843-19.453125.003906-24.441406 29.683593-36.734375 46.964843-19.453125zm0 0" fill-rule="evenodd"></path></svg>