<svg xmlns="http://www.w3.org/2000/svg" id="Capa_1" height="512" viewBox="0 0 509.581 509.581" width="512"><g><path d="m182.682 369.782-38.367-66.455-9.3-3.385v209.639h31.74l73.26-77.567v-83.099z"></path><path d="m375.986 101.694-10.85-61.532h-62.481l-47.864-40.162-47.864 40.162h-62.481l-10.85 61.532-47.864 40.163 31.241 54.11-10.85 61.533 58.714 21.37 31.241 54.11 58.714-21.37 58.714 21.37 31.241-54.11 58.714-21.37-10.85-61.533 31.241-54.11zm-148.438 115.82-39.146-45.671 22.777-19.523 20.854 24.329 68.757-51.567 18 24z"></path><path d="m365.266 303.327-38.367 66.455-56.884-20.704v82.869l73.548 77.634h31.452v-209.802z"></path></g></svg>