<svg xmlns="http://www.w3.org/2000/svg" data-name="Layer 1" id="Layer_1" viewBox="0 0 64 64"><title></title><path d="M42.55,42.55a1,1,0,0,1-.71-.3L22.75,23.16a1,1,0,1,1,1.41-1.41L43.25,40.84a1,1,0,0,1,0,1.41A1,1,0,0,1,42.55,42.55Z"></path><path d="M42,35a4,4,0,1,1,4-4A4,4,0,0,1,42,35Zm0-6a2,2,0,1,0,2,2A2,2,0,0,0,42,29Z"></path><path d="M22,36a4,4,0,1,1,4-4A4,4,0,0,1,22,36Zm0-6a2,2,0,1,0,2,2A2,2,0,0,0,22,30Z"></path><path d="M59,50H5a1,1,0,0,1-1-1V39a1,1,0,0,1,1-1A6,6,0,0,0,5,26a1,1,0,0,1-1-1V15a1,1,0,0,1,1-1H59a1,1,0,0,1,1,1V25a1,1,0,0,1-1,1,6,6,0,0,0,0,12,1,1,0,0,1,1,1V49A1,1,0,0,1,59,50ZM6,48H58V39.94a8,8,0,0,1,0-15.88V16H6v8.06A8,8,0,0,1,6,39.94Z"></path></svg>