<svg xmlns="http://www.w3.org/2000/svg" height="512" viewBox="0 0 54 58" width="512"><g id="Page-1" fill="none" fill-rule="evenodd"><g id="001---Leather-Tag" fill="rgb(0,0,0)" fill-rule="nonzero"><path id="Shape" d="m53.14 46.537c-3.694-2.137-7.14-6.255-7.14-15.537 0-8.245 5.439-14.451 7.348-16.375.3601216-.36649.3839-.9462503.055-1.341l-4.05-4.861c-.2231377-.26167556-.5643844-.39138699-.905-.344-10.481 1.371-13.542-5.231-14.259-7.405-.1364418-.4051329-.5175185-.67692723-.945-.674h-12.488c-.4274815-.00292723-.8085582.2688671-.945.674-.717 2.174-3.778 8.776-14.259 7.405-.33895119-.04560591-.6778809.08394056-.9.344l-4.052 4.861c-.32889997.3947497-.30512158.97451.055 1.341 1.906 1.924 7.345 8.13 7.345 16.375 0 9.282-3.446 13.4-7.14 15.537-.46730151.2740925-.63135761.8704586-.37 1.345l4.072 7.329c.24368888.440143.77643141.630714 1.244.445 3.206-1.292 15.166-5.406 21.194 2.344 6.028-7.75 17.988-3.636 21.194-2.344.4675686.185714 1.0003111-.004857 1.244-.445l4.072-7.329c.2613576-.4745414.0973015-1.0709075-.37-1.345zm-7.84-35.277h.018.4c.493 0 1-.017 1.514-.052.3193806-.0199733.6292718.1128902.835.358l1.363 1.635c.3077244.3704282.3077244.9075718 0 1.278-.382.461-.782.97-1.188 1.526-.3255719.4462461-.9512539.5440718-1.3975.2185-.4462461-.3255719-.5440718-.9512539-.2185-1.3975.25-.342.4966667-.667.74-.975l-.515-.618c-.384.018-.763.027-1.135.027h-.438c-.5522847-.0046944-.9961944-.4562153-.9915-1.0085s.4562153-.9961944 1.0085-.9915zm-2.456 10.361c.4825039-1.2092766 1.0447396-2.3851945 1.683-3.52.2763771-.4681168.8760889-.629704 1.3502388-.3638103s.6490399.861862.3937612 1.3418103c-.5943346 1.0576067-1.1181421 2.1533264-1.568 3.28-.1509902.3815069-.5197007.6320715-.93.632-.1264916.0000142-.2517922-.0244347-.369-.072-.5129064-.2039641-.7635547-.784931-.56-1.298zm.022 2.988c.5362579.1267035.8689697.6633354.744 1.2-.2771206 1.1722958-.4610281 2.3646852-.55 3.566-.0378233.5239851-.4746533.9293633-1 .928h-.074c-.2645666-.0191942-.5106673-.1427187-.6841454-.3433907s-.2601183-.4620477-.2408546-.7266093c.0969454-1.3071805.2975764-2.6045945.6-3.88.060799-.2586485.2220318-.4824679.4481095-.6220545.2260778-.1395866.498412-.1834634.7568905-.1219455zm.6 12.035c.0465511.2611063-.0125314.5300106-.1642493.7475542-.1517178.2175435-.3836425.3659053-.6447507.4124458-.0584746.0099576-.1176836.0149753-.177.015-.4838675-.0006727-.8978397-.347685-.983-.824-.2246654-1.2782538-.3716018-2.5689564-.44-3.865-.0303757-.5522847.3927153-1.0246243.945-1.055s1.0246243.3927153 1.055.945c.0634623 1.2151625.2003791 2.4253731.41 3.624zm-8.494-27.9c.1556722-.21576326.3909091-.36059549.6536562-.40244735s.5313404.02272742.7463438.17944735c1.2793043.91827407 2.7057145 1.6118652 4.218 2.051.4781125.1394458.7807399.6094564.7098145 1.1024131s-.4937826.8585864-.9918145.8575869c-.0958693-.0002236-.1911979-.0143713-.283-.042-1.7303722-.502981-3.3621547-1.2977351-4.825-2.35-.2155293-.15501995-.3605682-.38938322-.4031492-.65143459s.0207913-.53027961.1761492-.74556541zm-5.972 1.256c0 1.1045695-.8954305 2-2 2s-2-.8954305-2-2 .8954305-2 2-2 2 .8954305 2 2zm-15.592.571c1.5131089-.4381224 2.9402885-1.13142051 4.22-2.05.4476268-.32363886 1.0728611-.22312679 1.3965.2245s.2231268 1.07286114-.2245 1.3965c-1.4639653 1.0511396-3.0963215 1.8451674-4.827 2.348-.091849.027304-.1871786.041115-.283.041-.4980319.0009995-.9208891-.3646302-.9918145-.8575869s.231702-.9629673.7098145-1.1024131zm-1.066 14.806c.3000451 1.2756766.4989955 2.5730337.595 3.88.0192637.2645616-.0673765.5259373-.2408546.7266093s-.4195788.3241965-.6841454.3433907h-.074c-.5253467.0013633-.9621767-.4040149-1-.928-.0879165-1.201572-.2708212-2.3942981-.547-3.567-.1264732-.5376492.2068508-1.0760268.7445-1.2025s1.0760268.2068508 1.2025.7445zm.6 7.776c-.0693035 1.2964434-.2172423 2.5874844-.443 3.866-.0855884.4759175-.499448.8224144-.983.823-.0596479-.0000252-.1191891-.0050427-.178-.015-.2611305-.0467623-.4929792-.1953684-.6445177-.4131113-.1515385-.2177428-.2103471-.4867765-.1634823-.7478887.2118186-1.1984487.3504088-2.4086916.415-3.624.0369542-.5486652.5056683-.9671758 1.055-.942.5502581.0316952.9711241.5026537.941 1.053zm-5.79-16.925c-.21438868.157237-.48256686.2226276-.74526943.1817211s-.49830119-.1847424-.65473057-.3997211c-.406-.556-.806-1.066-1.188-1.527-.3071709-.3702513-.3071709-.9067487 0-1.277l1.366-1.636c.20472104-.2458812.51473671-.3789575.834-.358.515.035 1.021.052 1.515.052h.4c.55228475-.009665 1.00783502.4302153 1.0175.9825s-.43021525 1.007835-.9825 1.0175h-.438c-.372 0-.751-.009-1.134-.027l-.516.618c.24333333.3086667.49.6336667.74.975.15691675.2138827.22242194.4813494.18209967.7435379-.04032226.2621885-.18316759.4976126-.39709967.6544621zm.588 2.872c-.26272829-.4811021-.08916975-1.0840413.3891313-1.3518351s1.08303931-.1006116 1.3558687.3748351c.6372157 1.1357351 1.1987697 2.3122926 1.681 3.522.2035169.5136248-.0478752 1.0949831-.5615 1.2985s-1.09498307-.0478752-1.2985-.5615c-.44917158-1.1272851-.97231024-2.2236715-1.566-3.282zm1.252 32.348c-.665.176-1.29.361-1.865.546-.09893631.0315917-.20214249.0477809-.306.048-.3630356.000015-.6975647-.1967218-.874-.514l-1.523-2.74c-.2333495-.4199416-.13509655-.9464766.234-1.254.48050381-.4011186.93633424-.8309016 1.365-1.287.37861998-.3997514 1.00915528-.4182356 1.41054242-.0413501.40138714.3768854.42260145 1.0073348.04745758 1.4103501-.29266667.312-.59833333.614-.917.906l.737 1.325c.378-.1126667.77166667-.2233333 1.181-.332.34931581-.1031632.72709671-.0082405.98616095.2477867.25906424.2560271.35843517.6326624.25939831.9831704s-.38081666.6194483-.73555926.7020429zm.008-6.535c-.17598927-.0006003-.34861728-.0482456-.5-.138-.47621135-.2792816-.63601316-.8916313-.357-1.368.59949363-1.0312152 1.09717416-2.1183423 1.486-3.246.11754038-.3374373.4061729-.5865353.7571724-.653461s.7110408.0584884.9445.329c.2334591.2705116.304868.6450237.1873276.982461-.4317251 1.2507602-.9843379 2.4564609-1.65 3.6-.18050589.3077046-.51126381.495947-.868.494zm6.48 5.514c-1.0915764.0478093-2.1794287.1593326-3.258.334-.0529083.00843-.1064262.0124438-.16.012-.5203205-.0019141-.9522293-.4025178-.9932143-.9212251-.0409849-.5187074.322651-.9821699.8362143-1.0657749 1.156398-.186842 2.3227137-.3060446 3.493-.357.3572656-.0146479.6952072.1624158.8865254.4644929.1913183.3020772.2069474.683275.041 1.0000001-.1659473.316725-.4882598.5208591-.8455254.535507zm7.639.025c-.1240775.427063-.5152776.7208705-.96.721-.0948368.0001089-.1891759-.013705-.28-.041-1.0312575-.2962805-2.0867053-.5007442-3.154-.611-.3553006-.0375129-.6635991-.2617269-.8087623-.5881827s-.1051374-.705557.105-.9945c.2101375-.2889429.5584617-.4438302.9137623-.4063173 1.1843909.1233177 2.3555962.3508661 3.5.68.2555299.0732002.4714026.2451225.5999323.4777894s.1591395.506932.0850677.7622106zm-.577-44.172c-.1972523.30549431-.5447943.47983189-.9076063.45528276-.362812-.02454912-.6837012-.24411508-.8380023-.57339671s-.1176905-.71637168.0956086-1.01088605c.3517263-.51491324.6703687-1.05166195.954-1.607.1711068-.3339509.5147657-.54400759.89-.544h2c.3572656-.00000001.6873926.19059891.8660254.49999999s.1786328.69059894 0 1.00000002-.5087598.5-.8660254.49999999h-1.4c-.247.44-.512.869-.794 1.28zm6.627 46.047c-.5497499.2934741-1.0795643.6228543-1.586.986-.3484532.2500371-.8175468.2500371-1.166 0-.5064357-.3631457-1.0362501-.6925259-1.586-.986-.3152869-.1680934-.5169472-.4916218-.5290175-.848715-.0120702-.3570932.1672834-.6935003.4705-.8825.3032167-.1889997.6842306-.2018785.9995175-.033785.419.224.83.467 1.228.727.4-.26.809-.5 1.228-.727.4873913-.2598499 1.09315-.0753912 1.3529999.412.25985.4873913.0753914 1.09315-.4119999 1.353zm.095-47.327c-.5522847 0-1-.44771525-1-1s.4477153-1 1-1h2c.3752343-.00000759.7188932.2100491.89.544.2836313.55533805.6022737 1.09208676.954 1.607.2939306.4552248.1718086 1.061735-.2753953 1.36773089-.447204.30599589-1.0567623.20013243-1.3746047-.23873089-.282-.411-.547-.84-.793-1.28zm6.018 45.521c-1.0676067.1098341-2.1233943.3139642-3.155.61-.3431536.0998558-.713513.009056-.9715675-.2381959-.2580544-.2472518-.3645992-.6133924-.2795-.9605s.3489139-.6224484.6920675-.7223041c1.1444689-.3284424 2.3156718-.5553211 3.5-.678.5492472-.0579899 1.0415101.3402528 1.0995.8895s-.3402528 1.0415101-.8895 1.0995zm6.662.253c-.0532696.0001041-.1064548-.0042444-.159-.013-1.0786045-.1744156-2.1664421-.2859373-3.258-.334-.5516925-.0227299-.9805545-.4883003-.958-1.04.0376245-.5446673.4940814-.9651343 1.04-.958 1.169991.0510568 2.3359874.1705948 3.492.358.5135633.083605.8771992.5470675.8362143 1.0657749-.040985.5187073-.4728938.919311-.9932143.9212251zm.534-9.98c-.1301311-.340773-.0643847-.7253691.1715579-1.0035622.2359427-.278193.6046459-.4058436.9620915-.3330904.3574455.0727532.6469192.3343668.7553506.6826526.3874154 1.1278795.8837583 2.2153461 1.482 3.247.1866147.3086578.1925525.693893.0155392 1.0081556s-.5095451.5088495-.8702313.5092315-.6936293-.1935002-.8713079-.5073871c-.6648433-1.1443133-1.2158156-2.3510934-1.645-3.603zm7.1 7.992-1.523 2.741c-.1764353.3172782-.5109644.514015-.874.514-.1038575-.0002191-.2070637-.0164083-.306-.048-.575-.185-1.2-.37-1.865-.546-.3547426-.0825946-.6365224-.3515349-.7355593-.7020429-.0990368-.350508.0003341-.7271433.2593984-.9831704.2590642-.2560272.6368451-.3509499.9861609-.2477867.4093333.108.803.2186667 1.181.332l.737-1.325c-.318-.292-.6236667-.594-.917-.906-.2463854-.2601366-.3347668-.6322117-.2316836-.9753599s.3818758-.6049225.7308286-.6862169.7147316.0303162.958855.2925768c.4289236.4558409.8847381.8856088 1.365 1.287.3678908.3079389.4652489.8337567.232 1.253z"></path></g></g></svg>